<?xml version="1.0" encoding="UTF-8" standalone="no"?>
<!-- Created with Inkscape (http://www.inkscape.org/) -->

<svg
   xmlns:dc="http://purl.org/dc/elements/1.1/"
   xmlns:cc="http://creativecommons.org/ns#"
   xmlns:rdf="http://www.w3.org/1999/02/22-rdf-syntax-ns#"
   xmlns:svg="http://www.w3.org/2000/svg"
   xmlns="http://www.w3.org/2000/svg"
   xmlns:xlink="http://www.w3.org/1999/xlink"
   xmlns:sodipodi="http://sodipodi.sourceforge.net/DTD/sodipodi-0.dtd"
   xmlns:inkscape="http://www.inkscape.org/namespaces/inkscape"
   width="744.09448819"
   height="1052.3622047"
   id="svg2"
   version="1.1"
   inkscape:version="0.48.0 r9654"
   sodipodi:docname="123.svg">
  <defs
     id="defs4" />
  <sodipodi:namedview
     id="base"
     pagecolor="#ffffff"
     bordercolor="#666666"
     borderopacity="1.0"
     inkscape:pageopacity="0.0"
     inkscape:pageshadow="2"
     inkscape:zoom="1.8101934"
     inkscape:cx="1860.0994"
     inkscape:cy="932.505"
     inkscape:document-units="px"
     inkscape:current-layer="layer1"
     showgrid="false"
     inkscape:window-width="1440"
     inkscape:window-height="837"
     inkscape:window-x="-8"
     inkscape:window-y="-8"
     inkscape:window-maximized="1" />
  <metadata
     id="metadata7">
    <rdf:RDF>
      <cc:Work
         rdf:about="">
        <dc:format>image/svg+xml</dc:format>
        <dc:type
           rdf:resource="http://purl.org/dc/dcmitype/StillImage" />
        <dc:title></dc:title>
      </cc:Work>
    </rdf:RDF>
  </metadata>
  <g
     inkscape:label="Layer 1"
     inkscape:groupmode="layer"
     id="layer1">
    <rect
       style="fill:#000000;fill-opacity:1;stroke:#000000;stroke-width:20;stroke-miterlimit:4;stroke-opacity:1;stroke-dasharray:none"
       id="rect3793"
       width="1914.2858"
       height="1605.7142"
       x="-441.64145"
       y="-322.49783" />
    <path
       style="fill:none;stroke:#ffffff;stroke-width:20;stroke-linecap:butt;stroke-linejoin:miter;stroke-miterlimit:4;stroke-opacity:1;stroke-dasharray:none"
       d="m 122.22846,963.88418 c -4.04061,-16.16244 85.86297,-126.26906 85.86297,-126.26906 l 29.29442,36.36549 32.32488,11.11168 100.0051,-2.02031 38.26696,-9.56674 35.47418,-40.94088 74.75128,101.01525 -51.51777,75.76149 -42.42641,-52.52799 -12.12183,175.76659 -176.40033,4.0406 -13.50835,-181.82749 -32.32488,56.56859 z"
       id="body"
       inkscape:connector-curvature="0"
       sodipodi:nodetypes="ccccccccccccccc"
       inkscape:export-xdpi="90"
       inkscape:export-ydpi="90"
       inkscape:export-filename="C:\Users\Admin\Desktop\path3333.png"
       inkscape:label="#path2985" />
    <g
       id="face"
       inkscape:label="#g3809">
      <path
         sodipodi:nodetypes="cssscc"
         inkscape:connector-curvature="0"
         id="path3759"
         d="m 192.64741,617.35931 c 0,0 49.57688,59.68332 121.3903,56.02629 52.3492,-2.66584 140.06572,-35.48331 141.93326,-56.02629 1.86754,-20.54297 -26.1456,-164.34378 -50.42366,-175.54904 -9.59206,-4.42711 -141.93327,0 -141.93327,0 -45.87977,53.54728 -70.96663,114.46192 -70.96663,175.54904 z"
         style="fill:none;stroke:#ffffff;stroke-width:20;stroke-linecap:butt;stroke-linejoin:miter;stroke-miterlimit:4;stroke-opacity:1;stroke-dasharray:none" />
      <path
         transform="matrix(0.65364006,0,0,0.65364006,58.184307,291.79658)"
         d="m 368.57144,370.93362 a 30,30 0 1 1 -60,0 30,30 0 1 1 60,0 z"
         sodipodi:ry="30"
         sodipodi:rx="30"
         sodipodi:cy="370.93362"
         sodipodi:cx="338.57144"
         id="path3763"
         style="fill:none;stroke:#ffffff;stroke-width:30.59787941000000100;stroke-miterlimit:4;stroke-opacity:1;stroke-dasharray:none"
         sodipodi:type="arc" />
      <path
         transform="matrix(0.65364006,0,0,0.65364006,52.581678,282.45887)"
         d="m 519.99999,388.07648 a 28.571428,32.857143 0 1 1 -57.14286,0 28.571428,32.857143 0 1 1 57.14286,0 z"
         sodipodi:ry="32.857143"
         sodipodi:rx="28.571428"
         sodipodi:cy="388.07648"
         sodipodi:cx="491.42856"
         id="path3765"
         style="fill:none;stroke:#ffffff;stroke-width:30.59787941000000100;stroke-miterlimit:4;stroke-opacity:1;stroke-dasharray:none"
         sodipodi:type="arc" />
    </g>
    <g
       id="head"
       inkscape:label="#g3805">
      <path
         sodipodi:nodetypes="ccsscsszcc"
         inkscape:connector-curvature="0"
         id="path3772"
         d="m 200.3807,27.125211 282.07348,-2.863687 c 0,0 13.66229,-27.6439187 11.45474,-47.250887 -2.71866,-24.146652 -29.75212,-53.191597 -53.69416,-49.040696 -20.38631,3.534434 -19.86271,6.097061 -50.83051,28.994865 -21.4243,-33.55061 -25.27037,-70.076556 -61.56934,-70.518376 -38.92704,-0.47381 -56.30804,34.762173 -61.21138,73.382068 -1.20405,9.483353 -21.7627,-16.565637 -47.04069,-0.01814 -25.27799,16.547503 -19.18214,67.314844 -19.18214,67.314844 z"
         style="fill:none;stroke:#ffffff;stroke-width:20;stroke-linecap:butt;stroke-linejoin:miter;stroke-miterlimit:4;stroke-opacity:1;stroke-dasharray:none" />
      <path
         sodipodi:nodetypes="ccccccc"
         inkscape:connector-curvature="0"
         id="path3774"
         d="m 371.73614,-16.379209 -109.09648,131.319829 62.62946,0 -48.48733,92.93403 137.38076,-135.360436 -72.73099,4.04061 z"
         style="fill:none;stroke:#ffffff;stroke-width:20;stroke-linecap:butt;stroke-linejoin:miter;stroke-miterlimit:4;stroke-opacity:1;stroke-dasharray:none" />
    </g>
    <g
       id="logo"
       transform="translate(-558.57142,-22.857142)"
       inkscape:label="#g3783">
      <rect
         y="852.35199"
         x="1602.1019"
         height="256"
         width="256"
         id="rect2995"
         style="fill:#000000;fill-opacity:0;stroke:none" />
      <g
         transform="matrix(0.36184243,0,0,0.36184243,778.40975,563.3285)"
         id="g3773">
        <path
           style="fill:#ff3e00;fill-opacity:1;stroke:#f9aa6e;stroke-width:20;stroke-linecap:butt;stroke-linejoin:miter;stroke-miterlimit:4;stroke-opacity:1;stroke-dasharray:none"
           d="m 2678.4632,1272.2361 254.6774,-47.2619 -55.5635,119.1734 -212.1321,-8.0812 z"
           id="path2991"
           inkscape:connector-curvature="0"
           sodipodi:nodetypes="ccccc" />
        <path
           sodipodi:nodetypes="ccccc"
           inkscape:connector-curvature="0"
           id="path3761"
           d="m 2684.4893,1176.207 268.879,-85.2343 -8.5643,95.1327 -262.09,49.1211 z"
           style="fill:#ff3e00;fill-opacity:1;stroke:#f9aa6e;stroke-width:20;stroke-linecap:butt;stroke-linejoin:miter;stroke-miterlimit:4;stroke-opacity:1;stroke-dasharray:none" />
        <path
           style="fill:#ff3e00;fill-opacity:1;stroke:#f9aa6e;stroke-width:20;stroke-linecap:butt;stroke-linejoin:miter;stroke-miterlimit:4;stroke-opacity:1;stroke-dasharray:none"
           d="m 2673.1202,1054.1488 257.5346,-211.54751 25.1296,211.29521 -272.4787,88.6904 z"
           id="path3764"
           inkscape:connector-curvature="0"
           sodipodi:nodetypes="ccccc" />
        <path
           sodipodi:nodetypes="ccccc"
           inkscape:connector-curvature="0"
           id="path3766"
           d="m 2661.4044,1368.3912 197.9899,12.1218 -70.7107,78.7918 -145.4619,-34.345 z"
           style="fill:#ff3e00;fill-opacity:1;stroke:#f9aa6e;stroke-width:20;stroke-linecap:butt;stroke-linejoin:miter;stroke-miterlimit:4;stroke-opacity:1;stroke-dasharray:none" />
        <use
           x="0"
           y="0"
           xlink:href="#path2991"
           id="use3765"
           transform="matrix(-1,0,0,1,5259.0061,2.8571428)"
           width="744.09448"
           height="1052.3622"
           style="fill:#ff3e00;fill-opacity:1;stroke:#f9aa6e;stroke-opacity:1" />
        <use
           x="0"
           y="0"
           xlink:href="#path3761"
           id="use3767"
           transform="matrix(-1,0,0,1,5259.0061,2.8571428)"
           width="744.09448"
           height="1052.3622"
           style="fill:#ff3e00;fill-opacity:1;stroke:#f9aa6e;stroke-opacity:1" />
        <use
           x="0"
           y="0"
           xlink:href="#path3764"
           id="use3769"
           transform="matrix(-1,0,0,1,5259.0061,2.8571428)"
           width="744.09448"
           height="1052.3622"
           style="fill:#ff3e00;fill-opacity:1;stroke:#f9aa6e;stroke-opacity:1" />
        <use
           x="0"
           y="0"
           xlink:href="#path3766"
           id="use3771"
           transform="matrix(-1,0,0,1,5259.0061,2.8571428)"
           width="744.09448"
           height="1052.3622"
           style="fill:#ff3e00;fill-opacity:1;stroke:#f9aa6e;stroke-opacity:1" />
      </g>
    </g>
    <g
       id="g3774"
       inkscape:export-xdpi="90"
       inkscape:export-ydpi="90">
      <rect
         y="111.11217"
         x="1890.625"
         height="10"
         width="100"
         id="rect3002"
         style="fill:#ff0000;fill-opacity:1;stroke:none" />
      <rect
         transform="matrix(0,1,-1,0,0,0)"
         style="fill:#ff0000;fill-opacity:1;stroke:none"
         id="rect3772"
         width="100"
         height="10"
         x="66.112167"
         y="-1945.625" />
    </g>
  </g>
</svg>
